# xmcd
#
# Track frame offsets:
#	150
#	20718
#	44871
#	61750
#	77091
#	87779
#	124979
#	146770
#	178233
#
# Disc length: 2448 seconds
#
# Revision: 7
# Processed by: cddbd v1.5.2PL0 Copyright (c) Steve Scherf et al.
# Submitted via: Jack! The Knife
#
DISCID=81098e09
DTITLE=Stratovarius - Fright Night
DYEAR=1989
DGENRE=Heavy Metal
TTITLE0=Future Shock
TTITLE1=False Messiah
TTITLE2=Black Night
TTITLE3=Witch-Hunt
TTITLE4=Firedance
TTITLE5=Fright Night
TTITLE6=Night Screamer
TTITLE7=Darkness
TTITLE8=Goodbye
EXTD=Produced by: Stratovarius
EXTT0=
EXTT1=
EXTT2=
EXTT3=
EXTT4=
EXTT5=
EXTT6=
EXTT7=
EXTT8=
PLAYORDER=
